# xmcd
#
# Track frame offsets:
#	150
#	15640
#	29560
#	44450
#	57420
#	73307
#	85982
#	100432
#	112160
#	126617
#	139377
#	151805
#	166637
#
# Disc length: 2373 seconds
#
# Revision: 0
# Processed by: cddbd v1.5.1PL0 Copyright (c) Steve Scherf et al.
# Submitted via: dBpowerAMP V4.0
#
DISCID=c009430d
DTITLE=Albatros - Mod nye højder
DYEAR=1900
DGENRE=Dansktop
TTITLE0=Vildrosens dal
TTITLE1=Vinger som bær mig
TTITLE2=Hvorfor samle på gamle vaner
TTITLE3=Jeg si'r det som det er
TTITLE4=Dage som kommer og går
TTITLE5=Verdens lykkeligste mand
TTITLE6=Når alle vinde vender
TTITLE7=Guld og grønne skove
TTITLE8=Pigen fra igår
TTITLE9=Endnu en dag
TTITLE10=Hallo hallo
TTITLE11=Over vandet, gennem ilden
TTITLE12=Det er for sent
EXTD=
EXTT0=
EXTT1=
EXTT2=
EXTT3=
EXTT4=
EXTT5=
EXTT6=
EXTT7=
EXTT8=
EXTT9=
EXTT10=
EXTT11=
EXTT12=
PLAYORDER=
